<svg viewBox="0 0 1200 1000" xmlns="http://www.w3.org/2000/svg" font-family="Segoe UI, Helvetica, Arial, sans-serif">
  <defs><marker id="a" markerWidth="9" markerHeight="9" refX="6" refY="3" orient="auto"><path d="M0,0 L6,3 L0,6 Z" fill="#475569"/></marker></defs>
  <rect x="0" y="0" width="1200" height="1000" fill="#ffffff"/>
  <text x="600" y="30" text-anchor="middle" font-size="20" font-weight="700" fill="#0f172a">Full-Stack Architecture — All Layers &amp; Services Present (light in dev, clustered in prod)</text>
  <text x="600" y="52" text-anchor="middle" font-size="10.5" fill="#64748b">Legend:  solid = Core (always present)   ·   dashed = Optional (off by default)   ·   🔒 = Protected (cannot be disabled from UI)</text>

  <rect x="24" y="88" width="1152" height="816" rx="14" fill="#f8fafc" stroke="#94a3b8" stroke-width="1.5" stroke-dasharray="9 6"/>

  <!-- Cross-cutting -->
  <rect x="888" y="112" width="288" height="780" rx="12" fill="#f1f5f9" stroke="#64748b" stroke-width="1.5"/>
  <text x="1032" y="138" text-anchor="middle" font-size="12.5" font-weight="700" fill="#334155">Cross-Cutting</text>
  <g font-size="11.5" font-weight="700" fill="#1e293b" text-anchor="middle">
    <rect x="900" y="156" width="264" height="96" rx="9" fill="#fff" stroke="#cbd5e1"/><text x="1032" y="209">🔒 Audit Log</text>
    <rect x="900" y="276" width="264" height="96" rx="9" fill="#fff" stroke="#cbd5e1"/><text x="1032" y="329">Cache (speed only)</text>
    <rect x="900" y="396" width="264" height="96" rx="9" fill="#fff" stroke="#cbd5e1"/><text x="1032" y="449">Monitoring / Health</text>
    <rect x="900" y="516" width="264" height="96" rx="9" fill="#fff" stroke="#cbd5e1"/><text x="1032" y="569">License</text>
    <rect x="900" y="636" width="264" height="96" rx="9" fill="#fff" stroke="#cbd5e1"/><text x="1032" y="689">Hardware / Runtime Mgr</text>
    <rect x="900" y="756" width="264" height="96" rx="9" fill="#fff" stroke="#cbd5e1"/><text x="1032" y="809">Security / Policy</text>
  </g>

  <!-- L1 -->
  <rect x="48" y="112" width="812" height="84" rx="11" fill="#e0f2fe" stroke="#0284c7" stroke-width="1.5"/>
  <text x="60" y="131" font-size="12" font-weight="700" fill="#0c4a6e">1 · Presentation — Enterprise UI (Arabic / English · RTL · White-label)</text>
  <g font-size="10" font-weight="600" fill="#0c4a6e" text-anchor="middle">
    <rect x="60"    y="138" width="124" height="42" rx="7" fill="#fff" stroke="#7dd3fc"/><text x="122"   y="163">Admin Console</text>
    <rect x="192.8" y="138" width="124" height="42" rx="7" fill="#fff" stroke="#7dd3fc"/><text x="254.8" y="163">User Workspace</text>
    <rect x="325.6" y="138" width="124" height="42" rx="7" fill="#fff" stroke="#7dd3fc"/><text x="387.6" y="163">Chat</text>
    <rect x="458.4" y="138" width="124" height="42" rx="7" fill="#fff" stroke="#7dd3fc"/><text x="520.4" y="160">Builders</text><text x="520.4" y="173" font-size="8">Screen/Field/Workflow</text>
    <rect x="591.2" y="138" width="124" height="42" rx="7" fill="#fff" stroke="#7dd3fc"/><text x="653.2" y="163">App Store</text>
    <rect x="724"   y="138" width="124" height="42" rx="7" fill="#fff" stroke="#7dd3fc"/><text x="786"   y="163">i18n / RTL</text>
  </g>

  <!-- L2 -->
  <rect x="48" y="208" width="812" height="170" rx="11" fill="#ede9fe" stroke="#7c3aed" stroke-width="1.5"/>
  <text x="60" y="227" font-size="12" font-weight="700" fill="#4c1d95">2 · API / Application (FastAPI · Stateless)</text>
  <g font-size="9.5" font-weight="600" fill="#4c1d95" text-anchor="middle">
    <rect x="60"  y="234" width="188" height="30" rx="6" fill="#fff" stroke="#c4b5fd"/><text x="154" y="253">🔒 Auth</text>
    <rect x="260" y="234" width="188" height="30" rx="6" fill="#fff" stroke="#c4b5fd"/><text x="354" y="253">🔒 Authorization</text>
    <rect x="460" y="234" width="188" height="30" rx="6" fill="#fff" stroke="#c4b5fd"/><text x="554" y="253">Metadata</text>
    <rect x="660" y="234" width="188" height="30" rx="6" fill="#fff" stroke="#c4b5fd"/><text x="754" y="253">Records</text>
    <rect x="60"  y="270" width="188" height="30" rx="6" fill="#fff" stroke="#c4b5fd"/><text x="154" y="289">Migration / Generation</text>
    <rect x="260" y="270" width="188" height="30" rx="6" fill="#fff" stroke="#c4b5fd"/><text x="354" y="289">Workflow</text>
    <rect x="460" y="270" width="188" height="30" rx="6" fill="#fff" stroke="#c4b5fd"/><text x="554" y="289">Integration</text>
    <rect x="660" y="270" width="188" height="30" rx="6" fill="#fff" stroke="#c4b5fd"/><text x="754" y="289">Media / OCR</text>
    <rect x="60"  y="306" width="188" height="30" rx="6" fill="#fff" stroke="#c4b5fd"/><text x="154" y="325">RAG</text>
    <rect x="260" y="306" width="188" height="30" rx="6" fill="#fff" stroke="#c4b5fd"/><text x="354" y="325">Reports</text>
    <rect x="460" y="306" width="188" height="30" rx="6" fill="#fff" stroke="#c4b5fd"/><text x="554" y="325">Notifications</text>
    <rect x="660" y="306" width="188" height="30" rx="6" fill="#fff" stroke="#c4b5fd"/><text x="754" y="325">App Store</text>
    <rect x="60"  y="342" width="188" height="30" rx="6" fill="#fff" stroke="#c4b5fd"/><text x="154" y="361">🔒 Config / Profile</text>
    <rect x="260" y="342" width="188" height="30" rx="6" fill="#fff" stroke="#c4b5fd"/><text x="354" y="361">🔒 Feature Flags</text>
    <rect x="460" y="342" width="188" height="30" rx="6" fill="#fff" stroke="#c4b5fd"/><text x="554" y="361">🔒 Service Registry</text>
    <rect x="660" y="342" width="188" height="30" rx="6" fill="#fff" stroke="#c4b5fd"/><text x="754" y="361">Gateway Client</text>
  </g>

  <!-- L3 -->
  <rect x="48" y="390" width="812" height="132" rx="11" fill="#dcfce7" stroke="#16a34a" stroke-width="1.5"/>
  <text x="60" y="409" font-size="12" font-weight="700" fill="#14532d">3 · Orchestration &amp; Agents (scalable workers)</text>
  <rect x="60" y="414" width="788" height="28" rx="6" fill="#fff" stroke="#86efac"/>
  <text x="454" y="432" text-anchor="middle" font-size="10" font-weight="700" fill="#14532d">Orchestrator / Router — Classifier · Context · Permission Gate · No-Guessing</text>
  <g font-size="9" font-weight="600" fill="#14532d" text-anchor="middle">
    <rect x="60"    y="448" width="124" height="28" rx="6" fill="#fff" stroke="#86efac"/><text x="122"   y="466">Retrieval</text>
    <rect x="192.8" y="448" width="124" height="28" rx="6" fill="#fff" stroke="#86efac"/><text x="254.8" y="466">SQL</text>
    <rect x="325.6" y="448" width="124" height="28" rx="6" fill="#fff" stroke="#86efac"/><text x="387.6" y="466">Validation</text>
    <rect x="458.4" y="448" width="124" height="28" rx="6" fill="#fff" stroke="#86efac"/><text x="520.4" y="466">Reasoning</text>
    <rect x="591.2" y="448" width="124" height="28" rx="6" fill="#fff" stroke="#86efac"/><text x="653.2" y="466">Sec/Policy</text>
    <rect x="724"   y="448" width="124" height="28" rx="6" fill="#fff" stroke="#86efac"/><text x="786"   y="466">OCR/Doc</text>
    <rect x="60"    y="480" width="124" height="28" rx="6" fill="#fff" stroke="#86efac"/><text x="122"   y="498">Vision</text>
    <rect x="192.8" y="480" width="124" height="28" rx="6" fill="#fff" stroke="#86efac"/><text x="254.8" y="498">Audio</text>
    <rect x="325.6" y="480" width="124" height="28" rx="6" fill="#fff" stroke="#86efac"/><text x="387.6" y="498">Video</text>
    <rect x="458.4" y="480" width="124" height="28" rx="6" fill="#fff" stroke="#86efac"/><text x="520.4" y="498">API-Integr.</text>
    <rect x="591.2" y="480" width="124" height="28" rx="6" fill="#fff" stroke="#86efac"/><text x="653.2" y="498">Report</text>
    <rect x="724"   y="480" width="124" height="28" rx="6" fill="#fff" stroke="#86efac"/><text x="786"   y="498">Admin/Meta</text>
  </g>

  <!-- L4 -->
  <rect x="48" y="534" width="812" height="80" rx="11" fill="#fce7f3" stroke="#db2777" stroke-width="1.5"/>
  <text x="60" y="553" font-size="12" font-weight="700" fill="#831843">4 · Knowledge &amp; Models</text>
  <g font-size="10.5" font-weight="700" fill="#831843" text-anchor="middle">
    <rect x="60"  y="560" width="256" height="42" rx="7" fill="#fff" stroke="#f9a8d4"/><text x="188" y="581">OKF Catalog / Glossary</text><text x="188" y="595" font-size="8.5" font-weight="400" fill="#be185d">definitions · agent instructions</text>
    <rect x="326" y="560" width="256" height="42" rx="7" fill="#fff" stroke="#f9a8d4"/><text x="454" y="581">Model / Provider Registry</text><text x="454" y="595" font-size="8.5" font-weight="400" fill="#be185d">task → model mapping</text>
    <rect x="592" y="560" width="256" height="42" rx="7" fill="#fff" stroke="#f9a8d4"/><text x="720" y="581">LLM Gateway</text><text x="720" y="595" font-size="8.5" font-weight="400" fill="#be185d">Ollama / vLLM</text>
  </g>

  <!-- L5 Media -->
  <rect x="48" y="626" width="812" height="84" rx="11" fill="#ccfbf1" stroke="#0d9488" stroke-width="1.5"/>
  <text x="60" y="645" font-size="12" font-weight="700" fill="#134e4a">5 · Media Processing Pipeline (multimodal-ready)</text>
  <g font-size="9.5" font-weight="600" fill="#134e4a" text-anchor="middle">
    <rect x="60"    y="652" width="150" height="46" rx="7" fill="#fff" stroke="#5eead4"/><text x="135"   y="673">Ingest → MinIO</text><text x="135" y="687" font-size="8">upload</text>
    <rect x="219.5" y="652" width="150" height="46" rx="7" fill="#fff" stroke="#5eead4"/><text x="294.5" y="678">Type Detect</text>
    <rect x="379"   y="652" width="150" height="46" rx="7" fill="#fff" stroke="#5eead4"/><text x="454"   y="673">Route</text><text x="454" y="687" font-size="8">Registry + Gateway</text>
    <rect x="538.5" y="652" width="150" height="46" rx="7" fill="#fff" stroke="#5eead4"/><text x="613.5" y="673">Process</text><text x="613.5" y="687" font-size="8">OCR/Vision/Audio/Video</text>
    <rect x="698"   y="652" width="150" height="46" rx="7" fill="#fff" stroke="#5eead4"/><text x="773"   y="673">Index</text><text x="773" y="687" font-size="8">+ provenance + audit</text>
  </g>

  <!-- L6 Data -->
  <rect x="48" y="722" width="812" height="90" rx="11" fill="#e2e8f0" stroke="#475569" stroke-width="1.5"/>
  <text x="60" y="741" font-size="12" font-weight="700" fill="#1e293b">6 · Data &amp; Storage</text>
  <g font-size="9.5" font-weight="600" fill="#1e293b" text-anchor="middle">
    <rect x="60"    y="748" width="150" height="30" rx="6" fill="#fff" stroke="#cbd5e1"/><text x="135"   y="767">platform_db</text>
    <rect x="219.5" y="748" width="150" height="30" rx="6" fill="#fff" stroke="#cbd5e1"/><text x="294.5" y="767">apps_db</text>
    <rect x="379"   y="748" width="150" height="30" rx="6" fill="#fff" stroke="#cbd5e1"/><text x="454"   y="767">integration_db</text>
    <rect x="538.5" y="748" width="150" height="30" rx="6" fill="#fff" stroke="#cbd5e1"/><text x="613.5" y="767">reporting_db</text>
    <rect x="698"   y="748" width="150" height="30" rx="6" fill="#fff" stroke="#cbd5e1"/><text x="773"   y="767">Qdrant</text>
    <rect x="60"  y="784" width="188" height="30" rx="6" fill="#fff" stroke="#cbd5e1"/><text x="154" y="803">OpenSearch</text>
    <rect x="260" y="784" width="188" height="30" rx="6" fill="#fff" stroke="#cbd5e1"/><text x="354" y="803">MinIO</text>
    <rect x="460" y="784" width="188" height="30" rx="6" fill="#fff" stroke="#cbd5e1"/><text x="554" y="803">Redis (cache + queue)</text>
    <rect x="660" y="784" width="188" height="30" rx="6" fill="#fff" stroke="#94a3b8" stroke-dasharray="4 3"/><text x="754" y="800">Neo4j / Graph</text><text x="754" y="811" font-size="7.5" font-weight="400" fill="#64748b">optional · off by default</text>
  </g>

  <!-- L7 Connectors -->
  <rect x="48" y="824" width="812" height="68" rx="11" fill="#ffedd5" stroke="#ea580c" stroke-width="1.5"/>
  <rect x="60" y="848" width="440" height="34" rx="7" fill="#fff" stroke="#fdba74"/>
  <text x="280" y="870" text-anchor="middle" font-size="11" font-weight="700" fill="#7c2d12">7 · Connectors — MCP · Internal API · Webhook · DB</text>
  <rect x="520" y="848" width="328" height="34" rx="7" fill="#fff" stroke="#fdba74"/>
  <text x="684" y="870" text-anchor="middle" font-size="11" font-weight="700" fill="#7c2d12">Internal Enterprise Systems</text>
  <line x1="500" y1="865" x2="520" y2="865" stroke="#475569" stroke-width="1.6" marker-end="url(#a)"/>

  <!-- vertical arrows -->
  <g stroke="#475569" stroke-width="1.6">
    <line x1="454" y1="197" x2="454" y2="207" marker-end="url(#a)"/>
    <line x1="454" y1="379" x2="454" y2="389" marker-end="url(#a)"/>
    <line x1="454" y1="523" x2="454" y2="533" marker-end="url(#a)"/>
    <line x1="454" y1="615" x2="454" y2="625" marker-end="url(#a)"/>
    <line x1="454" y1="711" x2="454" y2="721" marker-end="url(#a)"/>
    <line x1="454" y1="813" x2="454" y2="823" marker-end="url(#a)"/>
  </g>

  <!-- Operations plane -->
  <rect x="24" y="916" width="1152" height="70" rx="12" fill="#fee2e2" stroke="#dc2626" stroke-width="1.5" stroke-dasharray="7 4"/>
  <text x="40" y="936" font-size="11.5" font-weight="700" fill="#991b1b">Operations Plane — Ops / Super-Admin only (NOT app admin) · all actions audited</text>
  <g font-size="9.5" font-weight="600" fill="#991b1b" text-anchor="middle">
    <rect x="60"  y="944" width="200" height="30" rx="6" fill="#fff" stroke="#fca5a5"/><text x="160" y="963">Deployment Controller</text>
    <rect x="286" y="944" width="200" height="30" rx="6" fill="#fff" stroke="#fca5a5"/><text x="386" y="963">Service Lifecycle (start/stop/scale)</text>
    <rect x="512" y="944" width="200" height="30" rx="6" fill="#fff" stroke="#fca5a5"/><text x="612" y="963">Profile Promotion</text>
    <rect x="738" y="944" width="200" height="30" rx="6" fill="#fff" stroke="#fca5a5"/><text x="838" y="963">Backup / Restore</text>
    <rect x="964" y="944" width="200" height="30" rx="6" fill="#fff" stroke="#fca5a5"/><text x="1064" y="963">TLS / Secrets</text>
  </g>
</svg>
